<?xml version="1.0" encoding="UTF-8"?>
<svg id="Layer_2" data-name="Layer 2" xmlns="http://www.w3.org/2000/svg" viewBox="0 0 190.38 79.48">
  <defs>
    <style>
      .cls-1 {
        fill: #6090c7;
      }

      .cls-1, .cls-2, .cls-3, .cls-4, .cls-5, .cls-6, .cls-7 {
        fill-rule: evenodd;
      }

      .cls-2 {
        fill: #322d2f;
      }

      .cls-3 {
        fill: #148b5e;
      }

      .cls-4 {
        fill: #e12231;
      }

      .cls-5 {
        fill: #030303;
      }

      .cls-6 {
        fill: #eca03e;
      }

      .cls-7 {
        fill: #90929a;
      }
    </style>
  </defs>
  <g id="Layer_1-2" data-name="Layer 1">
    <g>
      <path class="cls-2" d="M190.34,23.86l-3.36,45.22c-.44,6.13-5.86,10.81-12.05,10.38L10.46,67.61C4.27,67.17-.41,61.76,.03,55.63L3.39,10.4C3.83,4.27,9.24-.41,15.44,.03L179.92,11.87c6.25,.43,10.93,5.84,10.43,11.98"/>
      <path class="cls-5" d="M189.92,30.11l-2.38,32.7-4.64-.33c-2.11-.16-3.69-1.98-3.53-4.09l1.82-25.08c.16-2.11,1.98-3.69,4.09-3.53l4.64,.33Z"/>
      <path class="cls-7" d="M150.01,28.46l.49-6.69c.15-2.17,2.09-3.83,4.25-3.67,2.17,.15,3.82,2.03,3.67,4.19l-.49,6.69c-.15,2.17-2.09,3.83-4.25,3.67h0c-2.16-.09-3.82-2.03-3.67-4.19"/>
      <path class="cls-7" d="M148.65,47.6l.49-6.69c.15-2.17,2.09-3.83,4.25-3.67h0c2.17,.15,3.82,2.03,3.67,4.19l-.49,6.69c-.15,2.17-2.09,3.83-4.25,3.67h0c-2.17-.15-3.82-2.03-3.67-4.19"/>
      <path class="cls-7" d="M147.24,66.74l.49-6.69c.15-2.17,2.09-3.83,4.25-3.67h0c2.17,.15,3.82,2.03,3.67,4.19l-.49,6.69c-.15,2.17-2.09,3.83-4.25,3.67h0c-2.17-.15-3.82-2.03-3.67-4.19"/>
      <path class="cls-7" d="M137.07,27.54l.49-6.69c.15-2.17,2.09-3.83,4.25-3.67h0c2.17,.15,3.82,2.03,3.67,4.19l-.49,6.69c-.15,2.17-2.09,3.83-4.25,3.67h0c-2.17-.15-3.82-2.03-3.67-4.19"/>
      <path class="cls-7" d="M135.71,46.67l.49-6.69c.15-2.17,2.09-3.83,4.25-3.67h0c2.17,.15,3.82,2.03,3.67,4.19l-.49,6.69c-.15,2.17-2.09,3.83-4.25,3.67-2.23-.14-3.82-2.03-3.67-4.19"/>
      <path class="cls-7" d="M134.29,65.82l.49-6.69c.15-2.17,2.09-3.83,4.25-3.67h0c2.17,.15,3.82,2.03,3.67,4.19l-.49,6.69c-.15,2.17-2.09,3.83-4.25,3.67h0c-2.17-.15-3.82-2.03-3.67-4.19"/>
      <path class="cls-7" d="M124.01,26.64l.49-6.69c.15-2.17,2.09-3.83,4.25-3.67h0c2.17,.15,3.82,2.03,3.67,4.19l-.49,6.69c-.15,2.17-2.09,3.83-4.25,3.67h0c-2.17-.15-3.82-2.03-3.67-4.19"/>
      <path class="cls-7" d="M122.65,45.77l.49-6.69c.15-2.17,2.09-3.83,4.25-3.67h0c2.17,.15,3.82,2.03,3.67,4.19l-.49,6.69c-.15,2.17-2.09,3.83-4.25,3.67h0c-2.17-.15-3.82-2.03-3.67-4.19"/>
      <path class="cls-7" d="M121.23,64.91l.49-6.69c.15-2.17,2.09-3.83,4.25-3.67h0c2.17,.15,3.82,2.03,3.67,4.19l-.49,6.69c-.15,2.17-2.09,3.83-4.25,3.67h0c-2.17-.15-3.82-2.03-3.67-4.19"/>
      <path class="cls-7" d="M109.83,44.83l.49-6.69c.15-2.17,2.09-3.83,4.25-3.67h0c2.17,.15,3.82,2.03,3.67,4.19l-.49,6.69c-.15,2.17-2.09,3.83-4.25,3.67h0c-2.17-.15-3.82-2.03-3.67-4.19"/>
      <path class="cls-4" d="M95.12,20.02l.39-5.57c.14-1.8,1.74-3.17,3.54-3.03h0c1.8,.14,3.17,1.74,3.03,3.54l-.39,5.57c-.14,1.8-1.74,3.17-3.54,3.03h0c-1.8-.14-3.17-1.74-3.03-3.54"/>
      <path class="cls-3" d="M94.04,35.07l.39-5.57c.14-1.8,1.74-3.17,3.54-3.03h0c1.8,.14,3.17,1.74,3.03,3.54l-.39,5.57c-.14,1.8-1.74,3.17-3.54,3.03-1.8-.14-3.17-1.74-3.03-3.54"/>
      <path class="cls-6" d="M92.93,49.94l.39-5.57c.14-1.8,1.74-3.17,3.54-3.03,1.8,.14,3.17,1.74,3.03,3.54l-.39,5.57c-.14,1.8-1.74,3.17-3.54,3.03-1.8-.14-3.17-1.74-3.03-3.54"/>
      <path class="cls-1" d="M91.89,64.8l.39-5.57c.14-1.8,1.74-3.17,3.54-3.03h0c1.8,.14,3.17,1.74,3.03,3.54l-.39,5.57c-.14,1.8-1.74,3.17-3.54,3.03h0c-1.8-.14-3.17-1.74-3.03-3.54"/>
      <path class="cls-7" d="M64.17,11.71l15.61,1.13c3.41,.24,6,3.22,5.76,6.63h0c-.24,3.41-3.22,6-6.69,5.76l-15.61-1.13c-3.41-.24-6-3.22-5.76-6.63h0c.24-3.41,3.22-6,6.69-5.76"/>
      <path class="cls-7" d="M61.25,51.66l15.61,1.13c3.41,.24,6,3.22,5.76,6.63h0c-.24,3.41-3.22,6-6.69,5.76l-15.61-1.13c-3.41-.24-6-3.22-5.76-6.63,.3-3.41,3.28-6,6.69-5.76"/>
      <path class="cls-4" d="M167.04,29.66l.49-6.69c.15-2.17,2.09-3.83,4.25-3.67h0c2.17,.15,3.82,2.03,3.67,4.19l-.49,6.69c-.15,2.17-2.09,3.83-4.25,3.67h0c-2.16-.09-3.82-2.03-3.67-4.19"/>
      <path class="cls-7" d="M165.62,48.8l.49-6.69c.15-2.17,2.09-3.83,4.25-3.67h0c2.17,.15,3.82,2.03,3.67,4.19l-.49,6.69c-.15,2.17-2.09,3.83-4.25,3.67h0c-2.16-.09-3.82-2.03-3.67-4.19"/>
      <path class="cls-7" d="M164.2,67.94l.49-6.69c.15-2.17,2.09-3.83,4.25-3.67s3.82,2.03,3.67,4.19l-.49,6.69c-.15,2.17-2.09,3.83-4.25,3.67h0c-2.16-.09-3.82-2.03-3.67-4.19"/>
      <path class="cls-7" d="M72.48,42.12l.49-6.69c.15-2.17,2.09-3.83,4.25-3.67h0c2.17,.15,3.82,2.03,3.67,4.19l-.49,6.69c-.15,2.17-2.09,3.83-4.25,3.67h0c-2.16-.09-3.82-2.03-3.67-4.19"/>
      <path class="cls-7" d="M59.23,41.18l.49-6.69c.15-2.17,2.09-3.83,4.25-3.67h0c2.17,.15,3.82,2.03,3.67,4.19l-.49,6.69c-.15,2.17-2.09,3.83-4.25,3.67h0c-2.17-.15-3.82-2.03-3.67-4.19"/>
      <path class="cls-7" d="M42.67,16.24l.39-5.57c.14-1.8,1.74-3.17,3.54-3.03,1.8,.14,3.17,1.74,3.03,3.54l-.39,5.57c-.14,1.8-1.74,3.17-3.54,3.03h0c-1.8-.14-3.17-1.74-3.03-3.54"/>
      <path class="cls-7" d="M41.58,31.29l.39-5.57c.14-1.8,1.74-3.17,3.54-3.03h0c1.8,.14,3.17,1.74,3.03,3.54l-.39,5.57c-.14,1.8-1.74,3.17-3.54,3.03-1.8-.14-3.17-1.74-3.03-3.54"/>
      <path class="cls-7" d="M40.48,46.16l.39-5.57c.14-1.8,1.74-3.17,3.54-3.03s3.17,1.74,3.03,3.54l-.39,5.57c-.14,1.8-1.74,3.17-3.54,3.03-1.8-.14-3.17-1.74-3.03-3.54"/>
      <path class="cls-7" d="M39.37,61.02l.39-5.57c.14-1.8,1.74-3.17,3.54-3.03h0c1.8,.14,3.17,1.74,3.03,3.54l-.39,5.57c-.14,1.8-1.74,3.17-3.54,3.03h0c-1.74-.21-3.11-1.75-3.03-3.54"/>
      <path class="cls-7" d="M30.28,15.37l.39-5.57c.14-1.8,1.74-3.17,3.54-3.03,1.8,.14,3.17,1.74,3.03,3.54l-.39,5.57c-.14,1.8-1.74,3.17-3.54,3.03h0c-1.74-.21-3.11-1.75-3.03-3.54"/>
      <path class="cls-7" d="M29.2,30.42l.39-5.57c.14-1.8,1.74-3.17,3.54-3.03h0c1.8,.14,3.17,1.74,3.03,3.54l-.39,5.57c-.14,1.8-1.74,3.17-3.54,3.03-1.8-.14-3.17-1.74-3.03-3.54"/>
      <path class="cls-7" d="M28.16,45.28l.39-5.57c.14-1.8,1.74-3.17,3.54-3.03s3.17,1.74,3.03,3.54l-.39,5.57c-.14,1.8-1.74,3.17-3.54,3.03-1.8-.2-3.17-1.74-3.03-3.54"/>
      <path class="cls-7" d="M27.04,60.08l.39-5.57c.14-1.8,1.74-3.17,3.54-3.03h0c1.8,.14,3.17,1.74,3.03,3.54l-.39,5.57c-.14,1.8-1.74,3.17-3.54,3.03h0c-1.8-.14-3.16-1.68-3.03-3.54"/>
    </g>
  </g>
</svg>