<?xml version="1.0" encoding="UTF-8" standalone="no"?>
<svg
   xmlns:dc="http://purl.org/dc/elements/1.1/"
   xmlns:cc="http://creativecommons.org/ns#"
   xmlns:rdf="http://www.w3.org/1999/02/22-rdf-syntax-ns#"
   xmlns:svg="http://www.w3.org/2000/svg"
   xmlns="http://www.w3.org/2000/svg"
   xmlns:sodipodi="http://sodipodi.sourceforge.net/DTD/sodipodi-0.dtd"
   xmlns:inkscape="http://www.inkscape.org/namespaces/inkscape"
   version="1.1"
   id="svg2"
   xml:space="preserve"
   width="866.4267"
   height="384.88"
   viewBox="0 0 866.4267 384.88"
   sodipodi:docname="ju_a_black.svg"
   inkscape:version="0.92.5 (2060ec1f9f, 2020-04-08)"><metadata
     id="metadata8"><rdf:RDF><cc:Work
         rdf:about=""><dc:format>image/svg+xml</dc:format><dc:type
           rdf:resource="http://purl.org/dc/dcmitype/StillImage" /><dc:title></dc:title></cc:Work></rdf:RDF></metadata><defs
     id="defs6" /><sodipodi:namedview
     pagecolor="#ffffff"
     bordercolor="#666666"
     borderopacity="1"
     objecttolerance="10"
     gridtolerance="10"
     guidetolerance="10"
     inkscape:pageopacity="0"
     inkscape:pageshadow="2"
     inkscape:window-width="1860"
     inkscape:window-height="1016"
     id="namedview4"
     showgrid="false"
     inkscape:zoom="0.42011633"
     inkscape:cx="513.82534"
     inkscape:cy="146.54774"
     inkscape:window-x="60"
     inkscape:window-y="27"
     inkscape:window-maximized="1"
     inkscape:current-layer="g12" /><g
     id="g10"
     inkscape:groupmode="layer"
     inkscape:label="ink_ext_XXXXXX"
     transform="matrix(1.3333333,0,0,-1.3333333,0,384.88)"><g
       id="g12"
       transform="scale(0.1)"><path
         style="fill:#231f20;fill-opacity:1;fill-rule:nonzero;stroke:none;stroke-width:0.13333333"
         d="m 454.13672,-0.00195313 c -10.25867,0 -18.57422,8.31750543 -18.57422,18.57617213 l 0.002,26.318359 h 68.44532 c 10.25866,0 18.57421,-8.317505 18.57421,-18.576172 l -0.002,-23.6035154 c 0.0533,-1.0266666 0.64791,-1.90852082 1.50391,-2.36718748 l 0.0117,-0.007813 c 0.0573,-0.0306667 0.0957,-0.0888698 0.0957,-0.15820312 0,-0.1 -0.0816,-0.18164063 -0.18164,-0.18164063 z M 435.56445,58.394531 V 246.11133 l 6.52539,0.004 c 44.456,0 80.49414,-36.03814 80.49414,-80.49414 V 76.970703 c 0,-10.258666 -8.31555,-18.576172 -18.57421,-18.576172 z m -100.51953,40.125 v 67.101559 c 0,44.456 36.03752,80.49414 80.49219,80.49414 l 6.52734,-0.004 V 117.09375 c 0,-10.25867 -8.3175,-18.574219 -18.57617,-18.574219 z"
         transform="matrix(7.5000002,0,0,-7.5000002,0,2886.6001)"
         id="path14"
         inkscape:connector-curvature="0" /><path
         style="fill:#231f20;fill-opacity:1;fill-rule:nonzero;stroke:none;stroke-width:0.13333333"
         d="m 53.753906,335.12695 v 6.26953 h 5.988282 v -6.26953 z m 9.886719,0 v 6.26953 h 5.990234 v -6.26953 z m 143.031255,0 v 6.26953 h 5.99023 v -6.26953 z m 9.88867,0 v 6.26953 h 5.99023 v -6.26953 z m -154.812503,8.14649 c -11.539467,0 -20.578125,9.16297 -20.578125,20.85937 0,11.82808 8.799064,20.74805 20.466797,20.74805 11.539466,0 20.578125,-9.16397 20.578125,-20.86133 0,-11.82813 -8.798531,-20.74609 -20.466797,-20.74609 z m 152.917973,0 c -11.53867,0 -20.57813,9.16297 -20.57813,20.85937 0,11.82808 8.80075,20.74805 20.46875,20.74805 11.53867,0 20.57813,-9.16397 20.57813,-20.86133 0,-11.82813 -8.80075,-20.74609 -20.46875,-20.74609 z m 178.69531,0 c -11.32,0 -20.1875,9.16297 -20.1875,20.85937 0,12.21558 8.41613,20.74805 20.46679,20.74805 8.02934,0 13.53233,-3.84023 16.09766,-6.13086 l 0.15625,-0.13867 v -16.34766 h -17.16992 v 4.91992 h 11.9668 v 9.08594 c -2.93867,2.31353 -6.98948,3.68945 -10.88282,3.68945 -9.028,0 -15.09375,-6.40614 -15.09375,-15.93945 0,-8.81093 6.35923,-15.71289 14.47657,-15.71289 5.82533,0 9.04815,2.10579 11.66015,4.38086 l 0.35547,0.31055 3.47461,-4.08789 -0.35742,-0.30274 c -4.49467,-3.7896 -8.83089,-5.33398 -14.96289,-5.33398 z m 340.08398,0.11328 c -7.75733,0 -13.38867,4.73062 -13.38867,11.25195 0,7.39427 5.42427,10.08751 13.57227,11.85938 8.33066,1.7572 9.85547,3.7619 9.85547,7.07226 0,3.75312 -3.33421,6.27539 -8.29688,6.27539 -5.08133,0 -8.89721,-1.5763 -13.17188,-5.4414 l -0.35742,-0.32227 -3.35742,3.97266 0.33789,0.30078 c 4.89867,4.37344 10.10291,6.41016 16.37891,6.41015 8.31066,0 13.89453,-4.6789 13.89453,-11.64453 0,-6.14274 -3.9404,-9.62276 -13.17773,-11.63476 h -0.002 c -8.71066,-1.86827 -10.30469,-3.90459 -10.30469,-7.24219 0,-3.49573 3.25097,-5.9375 7.9043,-5.9375 4.05733,0 7.57007,1.32335 11.05274,4.16602 l 0.37695,0.30664 3.15039,-4.17578 -0.35547,-0.28321 c -4.30667,-3.46 -8.52866,-4.93359 -14.11133,-4.93359 z m -713.419919,0.5625 v 26.81445 c 0,5.6172 -2.703376,8.96875 -7.230469,8.96875 -3.6135467,0 -6.0231764,-1.51406 -8.5976564,-5.40625 L 3.9042969,373.88477 0,377.24023 l 0.20703125,0.33789 c 2.91562925,4.76927 7.13216325,7.1875 12.53320275,7.1875 7.841614,0 12.712891,-5.38757 12.712891,-14.06054 v -26.75586 z m 77.742187,0 v 40.25586 h 5.259762 v -31.36719 l 24.5586,31.18945 0.14062,0.17774 h 4.23242 v -40.25586 h -5.25976 v 30.63281 l -24.08203,-30.63281 z m 53.257812,0 v 40.25586 h 5.37109 v -10.83594 l 7.86524,-7.97266 14.92578,18.8086 h 6.75391 l -17.92969,-22.56836 17.34375,-17.6875 h -7.04102 l -21.91797,22.78906 v -22.78906 z m 100.42578,0 v 40.25586 h 5.37305 v -13.875 h 9.08398 c 7.92134,0 15.91602,-4.13992 15.91602,-13.38672 0,-7.8932 -5.96155,-12.99414 -15.18555,-12.99414 z m 45.97852,0 v 40.25586 h 5.37109 v -40.25586 z m 24.5039,0 v 40.25586 h 5.25977 v -31.36719 l 24.55859,31.18945 0.14063,0.17774 h 4.23242 v -40.25586 h -5.25977 v 30.63281 L 326.7832,343.94922 Z m 125.98243,0 v 23.33008 c 0,10.82296 6.44245,17.54492 16.81445,17.54492 10.56533,0 16.87109,-6.68454 16.87109,-17.88086 v -22.99414 h -5.37109 v 23.33008 c 0,8.06826 -4.04405,12.50976 -11.38672,12.50976 -7.34533,0 -11.55664,-4.66293 -11.55664,-12.79101 v -23.04883 z m 51.55468,0 v 40.25586 h 5.25782 v -31.36719 l 24.55859,31.18945 0.14062,0.17774 h 4.23243 v -40.25586 h -5.25782 v 30.63281 l -24.08203,-30.63281 z m 53.41992,0 v 40.25586 h 5.3711 v -40.25586 z m 20.17969,0 17.1875,40.2539 0.1211,0.28321 h 4.54882 l 17.31055,-40.53711 h -5.79492 l -13.73242,33.11914 -13.67774,-33.11914 z m 53.1543,0 v 40.25586 h 29.63867 v -4.97852 h -24.26953 v -12.83008 h 21.46289 v -4.97656 h -21.46289 v -12.49414 h 23.99023 v -4.97656 z m 46.24805,0 v 40.25586 h 5.37109 v -15.2793 h 10.53516 l 11.40429,15.2793 h 6.61914 l -12.19531,-16.2207 c 6.57333,-1.44267 10.32227,-5.71866 10.32227,-11.82813 0,-7.41613 -5.7604,-12.20703 -14.67774,-12.20703 z m 93.35937,0 v 40.25586 h 5.37109 v -40.25586 z m 19.91406,0 v 5.0332 h 13.20118 v 35.22266 h 5.42578 v -35.22266 h 13.20312 v -5.0332 z m 41.71094,0 16.76953,24.37305 v 15.88281 h 5.42578 v -15.9375 l 16.76954,-24.31836 h -6.30274 l -13.12109,19.29492 -13.01172,-19.29492 z m -765.820311,4.35742 c 8.573333,0 15.037109,6.80324 15.037109,15.82617 0,8.95828 -6.415781,15.71289 -14.925781,15.71289 -8.573333,0 -15.039063,-6.80381 -15.039063,-15.82617 0,-8.95893 6.417735,-15.71289 14.927735,-15.71289 z m 152.919921,0 c 8.57333,0 15.03711,6.80324 15.03711,15.82617 0,8.95828 -6.41707,15.71289 -14.92773,15.71289 -8.57334,0 -15.03711,-6.80381 -15.03711,-15.82617 0,-8.95893 6.41706,-15.71289 14.92773,-15.71289 z m 42.26758,0.67578 h 9.47656 c 6.41467,0 10.09375,2.96224 10.09375,8.12891 0,5.00533 -4.04902,8.24023 -10.31836,8.24023 h -9.25195 z m 421.01953,0 h 11.66797 c 6.09467,0 9.5918,2.67673 9.5918,7.3418 0,4.6656 -3.78782,7.67773 -9.64649,7.67773 h -11.61328 z"
         transform="matrix(7.5000002,0,0,-7.5000002,0,2886.6001)"
         id="path20"
         inkscape:connector-curvature="0" /></g></g></svg>